<?xml version="1.0" encoding="UTF-8"?>
<svg width="7px" height="9px" viewBox="0 0 7 9" version="1.1" xmlns="http://www.w3.org/2000/svg" xmlns:xlink="http://www.w3.org/1999/xlink">
    <!-- Generator: Sketch 40.2 (33826) - http://www.bohemiancoding.com/sketch -->
    <title>？</title>
    <desc>Created with Sketch.</desc>
    <defs></defs>
    <g id="Page-1" stroke="none" stroke-width="1" fill="none" fill-rule="evenodd">
        <g id="Group-21" transform="translate(-64.000000, -3.000000)" fill="#FFFFFF">
            <path d="M67.632,3.264 C66.744,3.264 66.048,3.516 65.532,4.02 C65.004,4.524 64.752,5.22 64.752,6.108 L66.12,6.108 C66.12,5.604 66.216,5.208 66.42,4.932 C66.648,4.596 67.02,4.44 67.548,4.44 C67.956,4.44 68.28,4.548 68.508,4.776 C68.724,5.004 68.844,5.316 68.844,5.712 C68.844,6.012 68.736,6.3 68.52,6.564 L68.376,6.732 C67.596,7.428 67.128,7.932 66.972,8.256 C66.804,8.58 66.732,8.976 66.732,9.432 L66.732,9.6 L68.112,9.6 L68.112,9.432 C68.112,9.144 68.172,8.892 68.292,8.652 C68.4,8.436 68.556,8.232 68.772,8.052 C69.348,7.548 69.696,7.224 69.804,7.104 C70.092,6.72 70.248,6.228 70.248,5.628 C70.248,4.896 70.008,4.32 69.528,3.9 C69.048,3.468 68.412,3.264 67.632,3.264 L67.632,3.264 Z M67.416,10.188 C67.152,10.188 66.936,10.272 66.756,10.44 C66.576,10.608 66.492,10.824 66.492,11.088 C66.492,11.352 66.576,11.568 66.756,11.736 C66.936,11.904 67.152,12 67.416,12 C67.68,12 67.896,11.916 68.076,11.748 C68.256,11.58 68.352,11.352 68.352,11.088 C68.352,10.824 68.256,10.608 68.088,10.44 C67.908,10.272 67.68,10.188 67.416,10.188 L67.416,10.188 Z" id="？"></path>
        </g>
    </g>
</svg>