<?xml version="1.0" encoding="UTF-8"?>
<svg width="24px" height="24px" viewBox="0 0 24 24" version="1.1" xmlns="http://www.w3.org/2000/svg" xmlns:xlink="http://www.w3.org/1999/xlink">
    <!-- Generator: Sketch 46.1 (44463) - http://www.bohemiancoding.com/sketch -->
    <title>Ic_Theme_Normal</title>
    <desc>Created with Sketch.</desc>
    <defs></defs>
    <g id="云笔记markdown" stroke="none" stroke-width="1" fill="none" fill-rule="evenodd">
        <g id="云笔记web_markdown_正常" transform="translate(-1083.000000, -122.000000)">
            <g id="Group-8" transform="translate(1083.000000, 122.000000)">
                <g id="主题">
                    <g id="Group-8">
                        <rect id="Rectangle" x="0" y="0" width="24" height="24"></rect>
                        <g id="Group-7" transform="translate(4.000000, 6.000000)" fill="#949FB0">
                            <g id="主题">
                                <rect id="Rectangle-2" x="3" y="12" width="10" height="1"></rect>
                                <rect id="Rectangle-3" x="3" y="6" width="1" height="7"></rect>
                                <rect id="Rectangle-3-Copy" x="12" y="6" width="1" height="7"></rect>
                                <rect id="Rectangle-4" x="3" y="0" width="2" height="1"></rect>
                                <rect id="Rectangle-4-Copy-7" x="6" y="2" width="4" height="1"></rect>
                                <rect id="Rectangle-4-Copy-8" x="5" y="1" width="1" height="1"></rect>
                                <rect id="Rectangle-4-Copy-9" x="10" y="1" width="1" height="1"></rect>
                                <g id="Group-6" transform="translate(0.000000, 1.000000)">
                                    <rect id="Rectangle-4-Copy-2" x="2" y="0" width="1" height="1"></rect>
                                    <rect id="Rectangle-4-Copy-3" x="1" y="1" width="1" height="1"></rect>
                                    <rect id="Rectangle-4-Copy-4" x="0" y="2" width="1" height="1"></rect>
                                    <rect id="Rectangle-4-Copy-5" x="1" y="3" width="1" height="1"></rect>
                                    <rect id="Rectangle-4-Copy-6" x="2" y="4" width="1" height="1"></rect>
                                    <rect id="Rectangle-4-Copy-10" x="3" y="4" width="1" height="1"></rect>
                                    <rect id="Rectangle-4-Copy-17" transform="translate(12.500000, 4.500000) scale(-1, 1) translate(-12.500000, -4.500000) " x="12" y="4" width="1" height="1"></rect>
                                    <rect id="Rectangle-4-Copy-11" x="2" y="3" width="1" height="1"></rect>
                                    <rect id="Rectangle-4-Copy-18" transform="translate(13.500000, 3.500000) scale(-1, 1) translate(-13.500000, -3.500000) " x="13" y="3" width="1" height="1"></rect>
                                    <rect id="Rectangle-4-Copy-12" x="1" y="2" width="1" height="1"></rect>
                                    <rect id="Rectangle-4-Copy-19" transform="translate(14.500000, 2.500000) scale(-1, 1) translate(-14.500000, -2.500000) " x="14" y="2" width="1" height="1"></rect>
                                    <rect id="Rectangle-4-Copy-13" x="2" y="1" width="1" height="1"></rect>
                                    <rect id="Rectangle-4-Copy-14" x="3" y="0" width="1" height="1"></rect>
                                    <rect id="Rectangle-4-Copy-15" x="12" y="0" width="1" height="1"></rect>
                                    <rect id="Rectangle-4-Copy-16" x="13" y="1" width="1" height="1"></rect>
                                </g>
                                <g id="Group-6-Copy" transform="translate(14.500000, 3.500000) scale(-1, 1) translate(-14.500000, -3.500000) translate(13.000000, 1.000000)">
                                    <rect id="Rectangle-4-Copy-2" x="2" y="0" width="1" height="1"></rect>
                                    <rect id="Rectangle-4-Copy-3" x="1" y="1" width="1" height="1"></rect>
                                    <rect id="Rectangle-4-Copy-4" x="0" y="2" width="1" height="1"></rect>
                                    <rect id="Rectangle-4-Copy-5" x="1" y="3" width="1" height="1"></rect>
                                    <rect id="Rectangle-4-Copy-6" x="2" y="4" width="1" height="1"></rect>
                                </g>
                                <rect id="Rectangle-4-Copy" x="11" y="0" width="2" height="1"></rect>
                            </g>
                        </g>
                    </g>
                </g>
            </g>
        </g>
    </g>
</svg>